# xmcd
#
# Track frame offsets:
#	150
#	30247
#	50224
#	68379
#	84882
#	103805
#	122895
#	141659
#	154108
#	179307
#
# Disc length: 2738 seconds
#
# Revision: 1
# Processed by: cddbd v1.4PL0 Copyright (c) Steve Scherf et al.
# Submitted via: audiograbber 1.82.00
#
DISCID=830ab00a
DTITLE=Steve Edmonds - Medium Cool
DYEAR=2001
DGENRE=blues
TTITLE0=You Shook Me All Night Long
TTITLE1=Happysong
TTITLE2=Lucky
TTITLE3=The Wind Cries Mary
TTITLE4=Lowrider
TTITLE5=Sametown
TTITLE6=Superman
TTITLE7=House On Fire
TTITLE8=You Kill Me
TTITLE9=Couldn't Stand The Weather
EXTD=
EXTT0=
EXTT1=
EXTT2=
EXTT3=
EXTT4=
EXTT5=
EXTT6=
EXTT7=
EXTT8=
EXTT9=
PLAYORDER=
